<?xml version="1.0" encoding="utf-8"?>
<!-- Generator: Adobe Illustrator 17.0.0, SVG Export Plug-In . SVG Version: 6.00 Build 0)  -->
<!DOCTYPE svg PUBLIC "-//W3C//DTD SVG 1.1//EN" "http://www.w3.org/Graphics/SVG/1.1/DTD/svg11.dtd">
<svg version="1.1" id="Layer_1" xmlns="http://www.w3.org/2000/svg" xmlns:xlink="http://www.w3.org/1999/xlink" x="0px" y="0px"
	 width="256px" height="256px" viewBox="0 0 256 256" enable-background="new 0 0 256 256" xml:space="preserve">
<g>
	<g>
		<path fill="#1F76BB" d="M127.994,240.413v-18.332c55.453,0,100.566-45.107,100.566-100.555
			c0-55.449-45.113-100.562-100.566-100.562c-55.446,0-100.553,45.113-100.553,100.562H9.109
			c0-65.558,53.335-118.894,118.885-118.894c65.564,0,118.897,53.335,118.897,118.894
			C246.891,187.084,193.558,240.413,127.994,240.413z"/>
	</g>
	<g>
		<g>
			<path fill="#1F76BB" d="M209.132,207.913l-12.03-12.807c19.656-18.461,30.949-43.47,31.794-70.417
				c0.845-26.951-8.858-52.617-27.318-72.268c-18.453-19.654-43.466-30.945-70.419-31.788c-26.91-0.859-52.61,8.858-72.259,27.317
				c-19.658,18.46-30.951,43.466-31.796,70.417c-0.841,26.948,9.395,53.108,27.857,72.762l-13.507,10.505
				c-21.669-23.072-32.9-52.177-31.909-83.819c0.995-31.64,14.247-61,37.319-82.673c23.077-21.672,53.16-33.119,84.846-32.069
				c31.644,0.992,61.003,14.244,82.671,37.32c21.676,23.075,33.061,53.206,32.073,84.846
				C245.459,156.879,232.204,186.238,209.132,207.913z"/>
		</g>
	</g>
	<g>
		<path fill="#6E7880" d="M182.831,185.297l-11.958-13.895c14.55-12.519,22.9-30.697,22.9-49.875
			c0-36.268-29.509-65.771-65.779-65.771c-36.262,0-65.764,29.504-65.764,65.771H43.9c0-46.375,37.728-84.103,84.094-84.103
			c46.38,0,84.11,37.728,84.11,84.103C212.104,146.049,201.434,169.293,182.831,185.297z"/>
	</g>
	<g>
		<path fill="#1F76BB" d="M135.312,231.248c0,12.223-9.903,22.12-22.113,22.12c-12.216,0-22.112-9.896-22.112-22.12
			c0-12.209,9.896-22.111,22.112-22.111C125.409,209.137,135.312,219.038,135.312,231.248z"/>
	</g>
	<g>
		<path fill="#1F76BB" d="M128.366,150.127c-7.454-6.257-13.441-12.612-15.431-18.076c-2.32-4.71-3.495-9.737-3.495-14.946
			c0-14.986,9.774-27.716,23.28-32.197c-5.055-2.939-10.92-4.651-17.186-4.651c-18.94,0-34.293,15.353-34.293,34.291
			c0,12.231,6.423,22.94,16.062,29.012l-0.022,0.004c4.304,9.012-55.827,58.068-55.827,58.068S108.194,166.573,128.366,150.127z"/>
	</g>
	<g>
		<path fill="#6E7880" d="M114.217,117.105c0-16.103,13.061-29.157,29.159-29.157c16.105,0,29.159,13.054,29.159,29.157
			c0,10.399-5.464,19.504-13.656,24.669l0.014,0.002c-3.652,7.664,23.989,43.165,23.989,43.165s-60.029-38.434-65.535-54.755l0,0
			C115.362,126.245,114.217,121.813,114.217,117.105z"/>
	</g>
</g>
</svg>
